<svg xmlns="http://www.w3.org/2000/svg" width="120" height="120" viewBox="0 0 120 120"><rect width="120" height="120" rx="28" fill="#0D0620"/><g transform="translate(9,9) scale(0.85)"><defs><linearGradient id="eg" x1="0" y1="0" x2="1" y2="1"><stop offset="0" stop-color="#A855F7"/><stop offset="1" stop-color="#E040FB"/></linearGradient></defs><polygon points="60,6 106,32 106,88 60,114 14,88 14,32" fill="#0D0620" stroke="#A855F7" stroke-opacity="0.3" stroke-width="10" stroke-linejoin="round"/><polygon points="60,6 106,32 106,88 60,114 14,88 14,32" fill="none" stroke="url(#eg)" stroke-width="4" stroke-linejoin="round"/><polygon points="60,20 94,40 94,80 60,100 26,80 26,40" fill="none" stroke="#7C3AED" stroke-opacity="0.7" stroke-width="1.5"/><path d="M4 60 L14 60 M106 60 L116 60" stroke="#E040FB" stroke-width="3"/><path d="M44 34 L44 82 L62 82 L86 50" fill="none" stroke="#E040FB" stroke-opacity="0.3" stroke-width="16" stroke-linecap="round" stroke-linejoin="round"/><path d="M44 34 L44 82 L62 82 L86 50" fill="none" stroke="#FFFFFF" stroke-width="9" stroke-linecap="square"/></g></svg>